<svg width="130" height="155" viewBox="0 0 130 155" fill="none" xmlns="http://www.w3.org/2000/svg">
<path d="M0.5 105.785V10.355L5.99161 5.58348L14.7676 0.5H100.373L109.149 5.58348L114.641 15.1265V17.0936L126.531 20.2899L129.5 31.4081V43.7555L114.641 50.9128H99.4168V43.7555L97.1875 35.4082H48.0587L37.3609 46.1413V81.9275L40.9249 95.2725L53.406 98.6278V110.557L67.0822 96.8354H86.1057L97.1875 93.8563L100.373 81.9275H114.641L129.5 91.4705V120.1L126.531 131.218L114.641 134.414V153.5L88.4837 134.414H34.0242L27.8463 130.835L14.7676 143.957V120.1L0.5 105.785Z" fill="#7B19D8" fill-opacity="0.52"/>
<path d="M14.7676 120.1L0.5 105.785V10.355L5.99161 5.58348L14.7676 0.5H100.373L109.149 5.58348L114.641 15.1265V17.0936M14.7676 120.1V143.957L27.8463 130.835M14.7676 120.1V24.6694L27.8463 17.0936H114.641M114.641 81.9275V108.171L105.129 117.714H40.9249L27.8463 130.835M114.641 81.9275H100.373L97.1875 93.8563L86.1057 96.8354H67.0822L53.406 110.557V98.6278L40.9249 95.2725L37.3609 81.9275V46.1413L48.0587 35.4082H97.1875L99.4168 43.7555V50.9128H114.641M114.641 81.9275L129.5 91.4705V120.1L126.531 131.218L114.641 134.414V153.5L88.4837 134.414H34.0242L27.8463 130.835M114.641 50.9128V17.0936M114.641 50.9128L129.5 43.7555V31.4081L126.531 20.2899L114.641 17.0936" stroke="black" stroke-opacity="0.51"/>
</svg>
